<!--?xml version="1.0" standalone="no"?-->
              <svg id="sw-js-blob-svg" viewBox="0 0 100 100" xmlns="http://www.w3.org/2000/svg" version="1.1">
                    <defs> 
                        <linearGradient id="sw-gradient" x1="0" x2="1" y1="1" y2="0">
                            <stop id="stop1" stop-color="rgba(255, 106.408, 36.082, 1)" offset="0%"></stop>
                            <stop id="stop2" stop-color="rgba(255, 181.487, 241.408, 1)" offset="100%"></stop>
                        </linearGradient>
                    </defs>
                <path fill="url(#sw-gradient)" d="M20.2,-30.1C25.6,-23.9,29,-17.2,30.9,-10.3C32.7,-3.4,33,3.7,31.6,10.9C30.1,18.1,27,25.5,21.4,29.7C15.9,33.9,7.9,35,0.6,34.1C-6.7,33.3,-13.4,30.5,-20.6,26.8C-27.9,23.2,-35.6,18.6,-39.4,11.7C-43.2,4.8,-43,-4.6,-40.4,-13.4C-37.9,-22.2,-33,-30.5,-25.9,-36.2C-18.8,-41.9,-9.4,-45.1,-1,-43.7C7.4,-42.4,14.8,-36.4,20.2,-30.1Z" width="100%" height="100%" transform="translate(50 50)" stroke-width="0" style="transition: all 0.3s ease 0s;" stroke="url(#sw-gradient)"></path>
              </svg>